<?xml version="1.0" encoding="UTF-8"?>
<svg id="Layer_2" data-name="Layer 2" xmlns="http://www.w3.org/2000/svg" viewBox="0 0 108.89 106.4">
  <defs>
    <style>
      .cls-1 {
        fill: #fff;
        stroke-width: 0px;
      }
    </style>
  </defs>
  <g id="Layer_1-2" data-name="Layer 1">
    <path id="element" class="cls-1" d="M92.76,29.44c-14.46-8.88-32.97-5.6-43.58,7,2.46-8.33,8.11-15.71,16.34-20.17,8.93-4.84,19.08-5.24,27.9-1.96-10.3-10.6-26.76-13.55-40.4-6.16-14.92,8.08-21.33,25.75-15.73,41.24-5.98-6.29-9.55-14.87-9.3-24.24.28-10.16,5-19.14,12.25-25.15C25.92,3.62,15.14,16.4,14.71,31.9c-.46,16.96,11.64,31.35,27.85,34.25-8.44,2.03-17.66.84-25.64-4.07-8.66-5.32-14.08-13.9-15.65-23.18-4.03,14.22,1.65,29.95,14.86,38.06,14.46,8.88,32.97,5.6,43.58-7-2.46,8.33-8.11,15.71-16.34,20.17-8.93,4.84-19.08,5.24-27.9,1.96,10.3,10.6,26.76,13.55,40.4,6.16,14.92-8.08,21.33-25.75,15.73-41.24,5.98,6.29,9.55,14.87,9.29,24.24-.28,10.16-5,19.14-12.25,25.15,14.33-3.62,25.11-16.4,25.53-31.9.46-16.96-11.64-31.35-27.85-34.25,8.44-2.03,17.66-.83,25.64,4.07,8.66,5.32,14.08,13.9,15.65,23.18,4.03-14.22-1.65-29.94-14.86-38.06ZM60.67,54.89c-1.39,1.68-2.93,3.19-4.58,4.54-2.15-.37-4.23-.94-6.22-1.69-.76-2.05-1.3-4.13-1.65-6.23,1.39-1.68,2.93-3.19,4.58-4.54,2.15.37,4.23.94,6.22,1.69.76,2.05,1.3,4.13,1.65,6.23Z"/>
  </g>
</svg>