<?xml version="1.0" encoding="UTF-8"?>
<svg id="Layer_2" xmlns="http://www.w3.org/2000/svg" viewBox="0 0 107.68 107.19">
  <defs>
    <style>
      .cls-1 {
        fill: #fff;
      }
    </style>
  </defs>
  <g id="Layer_1-2" data-name="Layer_1">
    <g>
      <path class="cls-1" d="M49.72,39.91l1.49-25.3c.6-10.13-9.64-17.42-19.07-13.56-.16.07-.31.13-.47.19-9.32,3.91-11.24,16.24-3.69,22.93l19.03,16.85c1.01.89,2.61.23,2.69-1.11h0Z"/>
      <path class="cls-1" d="M67.58,49.5l25.42,1.49c10.17.6,17.5-9.6,13.62-18.98-.07-.16-.13-.31-.19-.47-3.93-9.28-16.32-11.19-23.04-3.67l-16.92,18.95c-.9,1.01-.24,2.6,1.12,2.68h0Z"/>
      <path class="cls-1" d="M57.96,39.91c.08,1.34,1.68,2,2.69,1.11l19.03-16.85c7.56-6.69,5.63-19.02-3.69-22.93-.16-.07-.31-.13-.47-.19-9.43-3.86-19.66,3.43-19.07,13.56l1.49,25.3h0Z"/>
      <path class="cls-1" d="M40.1,49.5c1.35-.08,2.01-1.67,1.12-2.68l-16.92-18.95c-6.72-7.52-19.11-5.61-23.04,3.67-.07.16-.13.31-.19.47-3.88,9.38,3.44,19.57,13.62,18.98l25.42-1.49h0Z"/>
      <path class="cls-1" d="M60.65,66.16c-1.01-.89-2.61-.23-2.69,1.11l-1.49,25.3c-.6,10.13,9.64,17.42,19.07,13.56.16-.07.31-.13.47-.19,9.32-3.91,11.24-16.24,3.69-22.93l-19.03-16.85h0Z"/>
      <path class="cls-1" d="M67.58,57.69c-1.35.08-2.01,1.67-1.12,2.68l16.92,18.95c6.72,7.52,19.11,5.6,23.04-3.67.07-.16.13-.31.19-.47,3.88-9.38-3.44-19.57-13.62-18.98l-25.42,1.49h0Z"/>
      <path class="cls-1" d="M49.72,67.27c-.08-1.34-1.68-2-2.69-1.11l-19.03,16.85c-7.56,6.69-5.63,19.02,3.69,22.93.16.07.31.13.47.19,9.43,3.86,19.66-3.43,19.07-13.56l-1.49-25.3h0Z"/>
      <path class="cls-1" d="M41.21,60.37c.9-1.01.24-2.6-1.12-2.68l-25.42-1.49c-10.17-.6-17.5,9.6-13.62,18.98.07.16.13.31.19.47,3.93,9.28,16.32,11.19,23.04,3.67l16.92-18.95h0Z"/>
    </g>
  </g>
</svg>