<?xml version="1.0" encoding="UTF-8"?>
<svg id="Layer_2" data-name="Layer 2" xmlns="http://www.w3.org/2000/svg" viewBox="0 0 108.89 108.89">
  <defs>
    <style>
      .cls-1 {
        fill: #fff;
        stroke-width: 0px;
      }
    </style>
  </defs>
  <g id="Layer_1-2" data-name="Layer 1">
    <g id="shape093">
      <path id="shape138" class="cls-1" d="M81.67,27.22c-19.32,4.37-22.86,7.9-27.22,27.22-4.37-19.32-7.9-22.86-27.22-27.22,19.32-4.37,22.86-7.9,27.22-27.22,4.37,19.32,7.9,22.86,27.22,27.22Z"/>
      <path id="shape138-2" data-name="shape138" class="cls-1" d="M81.67,81.67c-19.32,4.37-22.86,7.9-27.22,27.22-4.37-19.32-7.9-22.86-27.22-27.22,19.32-4.37,22.86-7.9,27.22-27.22,4.37,19.32,7.9,22.86,27.22,27.22Z"/>
      <path id="shape138-3" data-name="shape138" class="cls-1" d="M54.45,54.45c-19.32,4.37-22.86,7.9-27.22,27.22-4.37-19.32-7.9-22.86-27.22-27.22,19.32-4.37,22.86-7.9,27.22-27.22,4.37,19.32,7.9,22.86,27.22,27.22Z"/>
      <path id="shape138-4" data-name="shape138" class="cls-1" d="M108.89,54.45c-19.32,4.37-22.86,7.9-27.22,27.22-4.37-19.32-7.9-22.86-27.22-27.22,19.32-4.37,22.86-7.9,27.22-27.22,4.37,19.32,7.9,22.86,27.22,27.22Z"/>
    </g>
  </g>
</svg>