<?xml version="1.0" encoding="UTF-8" standalone="no"?>
<!DOCTYPE svg PUBLIC "-//W3C//DTD SVG 1.1//EN" "http://www.w3.org/Graphics/SVG/1.1/DTD/svg11.dtd">
<!-- 
SVG created by Ben Emson
Website: https://websvg.com
License: CC BY 4.0 (https://creativecommons.org/licenses/by/4.0/)
Attribution required: Please attribute this work to Ben Emson (https://websvg.com)
-->
<svg xmlns="http://www.w3.org/2000/svg" version="1.1" viewBox="0 0 1024 1024" width="1024.0pt" height="1024.0pt">
<path d="M 0.00 0.00 L 1024.00 0.00 L 1024.00 1024.00 L 0.00 1024.00 L 0.00 0.00 Z" fill="#f3efe4" />
<path d="M 604.23 89.00 C 611.63 90.50 618.61 93.76 624.43 98.58 C 629.15 102.63 633.34 106.87 635.09 113.03 C 637.24 119.95 635.47 127.24 634.42 134.21 C 633.08 142.27 630.81 150.80 624.30 156.30 C 615.88 163.28 605.32 165.42 594.72 166.50 C 587.82 167.05 581.24 167.40 574.94 164.07 C 567.31 160.30 563.77 153.54 555.66 151.31 C 553.61 150.88 550.36 149.82 548.87 151.83 C 545.47 155.26 543.51 159.44 539.43 162.42 C 536.40 164.55 532.96 166.09 529.81 168.06 C 530.52 170.51 531.99 173.25 531.86 175.82 C 530.97 178.05 529.37 180.04 528.41 182.24 C 528.72 185.11 530.55 187.84 531.38 190.61 C 533.80 197.32 531.95 205.17 534.23 211.74 C 536.48 215.25 541.10 217.06 543.55 220.49 C 544.18 222.75 543.57 225.44 543.41 227.76 C 548.31 232.62 554.63 236.14 560.75 239.26 C 566.36 241.96 571.67 244.57 577.97 245.12 C 587.67 245.87 597.32 246.71 606.94 248.21 C 611.36 248.96 616.05 249.90 620.10 251.89 C 621.62 252.68 623.50 253.98 623.22 255.94 C 622.30 259.08 619.14 261.68 616.69 263.70 C 605.82 272.17 593.34 277.71 580.53 282.52 C 571.36 286.09 561.77 288.00 552.45 291.01 C 556.01 299.17 561.90 305.48 568.77 310.97 C 562.29 307.87 556.34 303.70 552.43 297.56 C 549.68 293.30 549.06 287.85 547.36 282.94 C 546.91 287.36 546.81 291.75 547.83 296.11 C 549.57 305.25 555.55 313.53 562.38 319.64 C 567.60 324.44 571.57 329.95 577.20 333.79 C 579.84 335.61 582.58 337.26 585.14 339.19 C 581.57 338.62 578.14 337.90 575.00 336.02 C 569.75 333.00 566.42 328.20 561.92 324.14 C 564.41 328.80 567.78 332.88 572.27 335.71 C 575.83 338.01 579.60 339.01 583.47 340.54 C 588.31 342.41 591.30 346.27 596.05 348.90 C 598.85 350.62 602.62 351.83 604.82 354.30 C 605.53 357.40 605.10 360.85 605.01 364.01 C 604.62 371.34 604.91 378.99 608.40 385.62 C 610.05 388.84 613.10 391.12 614.76 394.27 C 615.74 398.64 614.74 403.36 616.18 407.83 C 618.45 414.93 623.04 421.50 628.07 426.95 C 630.09 429.21 632.38 431.40 634.05 433.93 C 635.95 436.28 634.25 440.06 634.00 442.80 C 633.34 445.84 634.00 449.50 631.91 451.88 C 628.32 456.56 624.42 460.08 623.02 466.12 C 621.66 470.97 624.44 474.99 626.57 479.11 C 625.49 479.71 624.40 480.30 623.32 480.89 C 620.26 477.71 617.42 474.66 613.54 472.45 C 603.70 466.70 592.22 465.06 581.03 464.27 C 567.64 462.96 554.39 463.41 540.96 462.73 C 533.46 462.45 526.30 460.73 518.74 461.18 C 519.80 462.18 520.87 463.39 522.16 464.08 C 526.58 464.58 531.07 464.30 535.51 464.80 C 542.95 465.56 550.34 464.90 557.80 465.34 C 570.76 466.02 583.96 466.07 596.77 468.27 C 604.54 469.71 612.97 472.68 618.91 478.06 C 620.17 479.59 622.98 481.99 620.14 483.42 C 616.13 481.98 612.51 479.77 608.36 478.62 C 592.02 473.58 572.47 475.11 555.78 473.45 C 564.24 472.75 572.71 473.48 581.18 472.44 C 566.09 472.07 551.08 470.80 536.02 469.83 C 532.61 469.68 529.22 469.44 525.88 468.72 C 533.38 468.11 540.47 468.82 547.99 468.98 C 556.68 469.16 565.34 469.93 574.04 470.20 C 586.52 470.61 598.87 472.34 610.89 475.76 C 606.56 473.84 602.18 472.43 597.53 471.53 C 575.42 467.25 553.14 467.18 530.99 464.83 C 528.13 464.58 525.28 464.67 522.42 464.84 C 522.09 466.52 521.74 468.20 521.39 469.87 C 522.93 470.17 524.47 470.48 526.01 470.79 C 517.50 471.51 509.90 468.96 501.74 467.18 C 497.94 466.00 495.65 468.84 492.62 470.58 C 487.53 474.09 481.74 475.51 476.39 478.40 C 473.40 479.99 471.15 482.36 469.03 484.94 C 473.32 482.96 477.49 479.08 482.16 478.33 C 487.38 478.55 492.33 480.01 497.64 479.57 C 500.40 483.17 502.65 486.99 506.72 489.26 C 510.03 491.11 513.65 492.69 517.29 493.80 C 519.99 494.69 522.55 493.83 525.29 493.44 C 531.15 492.33 536.55 492.90 542.07 490.22 C 534.48 488.45 526.92 489.58 519.35 488.51 C 510.57 486.74 505.51 480.54 499.47 474.63 C 500.34 473.90 501.18 472.60 502.34 472.41 C 505.86 471.85 509.55 472.13 513.09 472.35 C 516.65 472.52 519.32 474.88 522.92 474.96 C 535.28 475.72 547.60 476.68 560.00 476.51 C 572.67 476.63 584.60 475.98 597.19 477.61 C 604.91 478.68 612.31 480.36 619.12 484.27 C 618.37 485.04 617.71 486.25 616.68 486.64 C 614.51 486.86 612.23 486.41 610.07 486.13 C 602.42 484.96 594.73 484.47 587.00 484.13 C 571.00 483.14 555.01 481.88 539.00 481.21 C 530.70 480.84 522.49 479.64 514.19 479.33 C 513.84 479.87 513.49 480.40 513.15 480.94 C 518.76 481.80 524.36 481.71 530.01 482.09 C 553.02 483.50 576.00 484.98 599.04 485.73 C 607.19 486.19 615.03 487.98 622.89 490.06 C 625.90 490.97 628.11 488.98 630.58 487.59 C 634.00 485.22 638.07 483.01 640.74 479.80 C 642.40 476.73 642.05 472.15 644.15 469.16 C 649.24 462.15 655.88 455.75 660.04 448.12 C 655.00 452.95 651.46 458.63 646.76 463.78 C 644.24 466.75 641.50 468.91 640.96 473.02 C 640.28 475.39 640.52 478.78 638.18 480.15 C 634.55 482.66 629.98 485.23 625.92 486.96 C 623.70 487.97 621.65 487.62 619.36 487.12 C 623.58 481.80 629.30 480.42 635.51 478.64 C 635.97 475.83 636.30 472.87 637.21 470.17 C 638.24 467.23 640.45 464.79 642.53 462.55 C 646.76 458.09 650.71 453.41 655.15 449.15 C 658.05 446.37 660.83 443.51 663.12 440.20 C 655.32 446.53 649.08 454.33 641.87 461.18 C 644.60 454.96 649.02 450.58 653.15 445.14 C 657.05 440.03 661.50 435.46 665.07 430.15 C 657.03 437.12 650.31 446.26 642.95 453.95 C 640.06 456.99 637.47 460.00 636.01 464.00 C 634.61 467.80 634.96 471.82 634.43 475.76 C 634.44 476.84 633.18 477.53 632.49 478.22 C 632.52 473.55 632.69 468.59 634.13 464.12 C 636.17 458.29 642.15 453.88 645.88 448.89 C 650.30 442.99 654.90 437.28 659.55 431.56 C 670.07 416.64 682.28 402.71 692.56 387.53 C 696.33 381.00 701.56 375.47 705.11 368.84 C 701.18 372.22 698.51 376.32 695.36 380.36 C 689.15 388.49 683.03 396.70 676.85 404.86 C 667.70 416.50 657.45 427.50 647.62 438.61 C 641.55 445.46 633.78 452.92 630.76 461.71 C 628.91 466.75 631.64 472.82 629.35 477.51 C 627.22 472.79 626.70 467.43 627.44 462.34 C 628.25 458.23 631.68 454.44 634.19 451.20 C 642.69 441.01 650.60 430.36 659.34 420.36 C 672.27 405.26 684.66 389.71 697.70 374.70 C 702.59 368.78 707.37 362.87 713.19 357.82 C 717.50 359.38 721.24 361.46 724.95 364.13 C 721.05 372.08 715.60 379.37 710.82 386.82 C 706.43 393.70 701.61 400.27 696.98 406.98 C 694.03 411.30 690.61 415.18 688.11 419.80 C 690.89 423.18 694.35 426.59 694.66 431.22 C 694.89 436.15 694.60 441.56 691.82 445.80 C 688.40 451.38 685.07 457.00 681.42 462.42 C 679.53 465.44 677.42 468.30 677.36 472.00 C 677.21 476.43 677.22 480.77 676.04 485.09 C 673.17 495.75 669.41 505.99 665.21 516.19 C 660.61 527.31 657.84 539.19 655.10 551.01 C 650.35 574.44 647.07 598.21 644.70 621.99 C 643.53 633.77 644.26 645.53 645.89 657.22 C 648.26 674.45 651.30 691.67 655.44 708.56 C 661.43 734.33 670.36 759.46 681.61 783.40 C 683.50 787.34 685.61 791.10 686.98 795.28 C 681.37 788.17 678.99 778.63 674.02 771.00 C 675.85 777.00 678.86 782.82 681.50 788.53 C 686.64 799.04 692.39 809.31 699.04 818.95 C 705.93 829.32 713.32 839.03 722.49 847.51 C 735.31 859.51 751.30 867.98 767.49 874.49 C 780.77 879.88 794.94 883.35 808.99 886.06 C 824.17 888.39 839.64 889.72 855.00 889.75 C 870.36 889.81 885.70 889.76 901.04 889.07 C 909.36 888.56 917.69 888.44 926.02 888.66 C 918.82 889.91 911.51 889.38 904.26 890.37 C 886.22 891.55 868.31 893.32 850.21 893.40 C 872.52 896.07 895.35 894.45 917.74 896.51 C 921.71 896.89 925.48 898.04 929.11 899.65 C 924.05 899.71 919.02 899.48 913.96 899.94 C 891.35 901.96 868.83 904.30 846.15 905.52 C 826.74 907.05 807.33 907.81 787.89 908.46 C 789.48 911.14 791.35 913.33 794.05 914.95 C 804.06 921.47 817.16 923.51 828.84 924.53 C 844.61 926.23 860.31 926.21 876.10 926.76 C 872.43 927.45 868.72 927.62 864.99 927.65 C 847.62 928.07 829.62 928.10 812.38 925.73 C 797.16 923.51 782.50 920.81 767.00 921.65 C 759.95 922.15 752.07 922.22 745.53 924.93 C 747.28 926.10 749.01 927.22 750.98 927.99 C 759.23 931.05 767.56 932.68 776.02 934.77 C 768.60 934.77 761.37 933.53 753.97 933.07 C 743.06 932.30 731.93 931.38 721.00 931.74 C 713.60 931.95 706.41 933.09 698.98 932.77 C 685.32 932.29 671.69 931.17 658.04 930.40 C 644.03 929.69 630.04 929.41 616.00 929.14 C 610.53 929.07 605.47 928.32 600.11 929.90 C 604.52 933.65 609.65 934.61 615.16 935.69 C 624.99 937.41 635.07 938.10 645.04 938.47 C 638.02 939.83 631.10 939.57 624.00 939.68 C 608.34 939.90 592.60 939.10 576.96 938.51 C 571.81 938.28 566.70 937.90 561.55 938.19 C 562.40 939.74 563.37 941.15 564.86 942.15 C 569.42 945.35 575.03 947.19 579.95 949.88 C 571.76 949.52 564.00 947.35 556.30 944.71 C 541.01 939.79 525.29 933.57 509.03 933.25 C 494.70 932.92 482.12 938.19 468.00 938.15 C 453.14 938.26 437.88 936.98 423.49 941.51 C 419.82 942.74 415.17 944.59 412.90 947.89 C 411.33 950.99 410.64 954.49 409.12 957.64 C 407.21 955.30 405.46 953.22 405.52 950.00 C 405.50 945.29 408.87 941.91 412.66 939.67 C 418.19 936.59 424.72 934.94 430.90 933.81 C 439.23 932.34 447.47 930.44 455.76 928.77 C 460.71 927.46 466.57 926.67 468.39 921.10 C 461.72 918.35 455.32 921.68 448.54 922.40 C 439.20 923.60 430.10 922.28 421.05 919.91 C 411.50 917.42 401.79 917.00 391.96 917.34 C 382.92 917.66 374.07 919.46 365.02 919.77 C 374.08 917.06 384.03 916.64 392.66 912.83 C 389.82 912.05 386.96 911.52 384.00 911.49 C 371.85 911.23 359.59 912.54 347.48 913.60 C 331.91 915.49 316.34 917.74 300.96 920.82 C 286.76 923.30 272.41 925.07 258.01 925.78 C 248.16 926.49 238.10 926.98 228.22 926.61 C 237.29 925.96 246.31 924.94 255.27 923.30 C 263.10 921.75 271.33 920.09 278.54 916.55 C 280.72 915.53 282.38 913.93 284.03 912.23 C 281.03 910.17 277.88 908.58 274.32 907.72 C 261.35 904.27 247.35 903.92 234.00 903.88 C 210.19 904.47 186.53 903.91 162.83 901.46 C 140.48 898.95 118.40 894.19 97.12 886.88 C 90.47 884.52 83.69 882.53 77.03 880.20 C 86.61 880.17 95.46 882.03 105.00 883.00 C 112.39 883.78 119.76 884.75 127.16 885.46 C 143.47 886.60 159.90 886.55 176.20 885.19 C 203.40 882.34 231.42 874.98 255.22 861.22 C 268.03 854.21 279.92 845.57 290.54 835.55 C 299.43 827.50 306.61 818.36 313.74 808.74 C 330.60 784.79 342.89 757.30 351.30 729.31 C 357.34 707.92 361.96 686.22 363.68 664.02 C 364.31 654.99 365.37 646.07 365.47 637.00 C 365.59 627.59 365.81 617.92 363.23 608.80 C 360.22 597.79 355.83 587.00 351.57 576.41 C 348.67 569.21 344.57 563.75 342.89 556.15 C 341.17 548.25 340.51 540.08 340.75 532.00 C 341.12 524.30 341.78 516.93 344.73 509.73 C 347.70 502.59 351.89 495.88 357.50 490.51 C 362.03 485.95 367.33 482.42 372.02 478.07 C 363.92 480.78 355.30 485.08 349.66 491.65 C 343.59 498.73 340.34 507.71 339.81 516.98 C 339.28 526.56 337.95 536.52 338.67 546.04 C 339.12 553.40 341.01 560.32 343.91 567.08 C 349.96 583.59 357.65 597.90 361.74 615.14 C 362.69 619.44 362.71 623.62 362.70 628.00 C 362.51 650.28 358.91 672.58 353.08 694.06 C 343.17 726.90 328.44 758.16 310.09 787.11 C 306.42 792.90 302.53 798.60 298.14 803.87 C 300.13 800.32 302.41 796.98 304.68 793.61 C 311.01 784.16 315.99 774.33 321.24 764.25 C 325.12 756.37 328.98 748.44 332.29 740.29 C 336.82 729.20 341.44 718.46 345.00 706.99 C 353.73 680.38 359.55 652.05 360.12 623.99 C 360.23 619.52 359.48 615.17 358.09 610.93 C 355.23 602.06 351.82 593.47 348.05 584.95 C 344.67 577.06 340.95 569.84 338.38 561.61 C 335.49 552.91 336.25 542.73 335.31 533.49 C 334.14 522.31 334.19 511.67 331.18 500.76 C 329.06 493.01 331.57 486.08 330.35 478.30 C 329.76 474.16 328.35 469.96 329.87 465.85 C 331.48 461.30 335.62 458.19 338.45 454.44 C 340.62 451.76 340.85 447.80 341.44 444.51 C 343.06 432.42 348.18 420.39 353.44 409.46 C 356.26 403.53 360.34 397.18 361.42 390.68 C 362.39 384.81 358.04 380.17 359.16 374.17 C 360.52 367.37 365.12 361.12 371.80 358.76 C 381.20 355.28 391.80 356.65 401.58 353.58 C 410.09 350.91 418.57 347.14 425.68 341.69 C 442.14 330.55 453.96 312.35 459.42 293.42 C 461.47 286.65 463.59 280.17 463.84 273.03 C 459.52 281.58 458.16 291.35 454.21 300.22 C 451.00 307.30 447.24 314.31 442.52 320.51 C 438.83 325.31 435.31 329.90 430.13 333.21 C 434.08 328.08 438.66 323.67 442.15 318.15 C 449.19 307.47 452.23 294.26 454.92 281.91 C 455.79 277.89 457.65 274.40 459.41 270.74 C 451.65 277.32 450.23 285.82 445.28 294.28 C 441.45 300.93 437.57 307.63 433.17 313.92 C 434.52 310.46 436.09 307.10 437.80 303.81 C 443.15 293.63 448.22 282.98 451.71 272.00 C 447.89 277.30 446.01 283.25 442.94 288.93 C 438.09 297.87 434.35 306.85 427.99 314.99 C 424.15 319.91 419.63 323.87 415.07 328.09 C 407.44 335.48 397.38 340.94 388.41 346.61 C 386.13 347.92 386.05 350.49 383.36 351.29 C 377.65 353.54 372.12 355.35 367.23 359.24 C 359.73 365.34 355.45 373.69 353.16 382.96 C 353.31 379.42 353.39 376.07 354.70 372.73 C 356.91 366.75 361.24 362.07 366.21 358.23 C 370.41 355.03 374.98 353.09 379.46 350.43 C 384.87 347.25 388.97 342.65 394.37 339.39 C 397.67 337.41 401.06 335.61 404.14 333.28 C 400.27 334.23 397.19 335.95 393.13 335.35 C 397.78 332.08 402.84 331.21 407.95 328.97 C 413.86 326.56 419.09 322.05 423.41 317.43 C 432.00 308.07 436.30 295.46 437.74 283.02 C 434.78 289.36 433.68 295.81 429.79 301.78 C 424.37 310.09 417.04 317.53 407.16 320.12 C 413.82 315.80 420.25 311.57 425.35 305.36 C 429.23 300.87 432.28 295.88 433.20 289.92 C 430.69 293.65 428.95 297.63 426.20 301.18 C 422.63 305.74 418.97 309.98 414.14 313.26 C 417.75 308.04 422.10 303.85 425.17 298.18 C 426.74 295.40 427.47 292.43 428.26 289.37 C 427.07 290.50 425.90 291.67 424.72 292.81 C 419.52 292.62 414.46 291.66 409.36 290.73 C 394.39 288.18 379.61 284.16 365.50 278.53 C 363.27 277.59 360.60 276.54 358.95 274.73 C 357.65 272.31 360.35 270.91 362.15 270.05 C 368.55 267.41 376.17 266.96 382.98 265.88 C 399.05 263.56 414.29 259.69 428.41 251.42 C 431.15 249.70 434.23 247.84 436.27 245.30 C 438.39 242.24 439.27 238.46 441.35 235.34 C 444.03 231.26 447.21 227.77 449.25 223.25 C 452.19 217.18 452.85 211.02 454.64 204.64 C 457.31 195.25 462.51 187.72 464.22 178.36 C 465.51 171.43 465.52 164.51 469.24 158.24 C 472.68 152.37 479.40 148.02 484.38 143.37 C 489.92 138.57 494.83 133.18 499.99 128.00 C 506.08 122.11 514.62 118.77 523.02 118.32 C 530.10 117.97 536.34 120.64 542.77 123.22 C 553.22 127.54 564.46 131.97 574.14 137.86 C 580.19 141.54 583.34 146.97 590.20 148.89 C 596.24 150.57 603.51 150.84 608.64 146.66 C 613.42 142.87 617.12 137.50 620.43 132.43 C 623.33 127.68 626.77 121.70 626.43 115.98 C 625.97 109.85 622.74 103.84 618.70 99.31 C 614.55 94.64 609.44 92.18 604.23 89.00 Z" fill="#292b29" />
<path d="M 513.03 124.84 C 518.91 123.74 525.74 127.23 531.05 129.52 C 525.58 128.50 519.58 127.22 514.02 127.99 C 509.27 128.60 505.28 132.31 503.74 136.75 C 503.17 139.02 502.62 141.61 505.14 142.88 C 509.43 145.10 514.48 145.68 518.95 147.57 C 515.50 147.32 511.68 146.68 508.27 147.31 C 504.29 148.16 500.60 150.94 497.76 153.75 C 493.82 157.76 490.28 162.10 487.78 167.16 C 494.90 166.85 501.87 165.76 509.03 166.30 C 502.29 167.72 494.25 167.91 488.19 171.17 C 485.57 172.43 484.12 174.60 482.67 177.01 C 486.13 180.50 490.29 181.14 494.96 181.80 C 491.19 182.67 486.73 183.29 483.47 185.45 C 481.44 186.77 481.30 188.69 480.76 190.84 C 489.66 190.46 498.08 188.34 507.08 189.50 C 501.00 192.25 495.03 193.67 489.38 197.39 C 483.57 201.30 478.36 206.17 473.12 210.80 C 480.13 210.07 486.90 208.40 493.99 208.34 C 489.18 210.69 484.37 213.00 479.77 215.76 C 473.83 219.34 467.47 221.67 461.87 225.67 C 472.36 223.63 482.12 220.37 492.98 220.29 C 486.17 223.23 478.98 224.36 471.95 226.54 C 477.30 226.96 482.65 227.09 488.00 227.41 C 481.42 229.01 474.66 229.38 468.10 231.13 C 459.55 233.51 451.06 234.72 442.94 238.49 C 446.67 234.83 450.05 231.00 452.14 226.14 C 456.06 217.89 456.03 209.02 459.84 200.81 C 462.20 195.68 465.18 191.15 466.59 185.59 C 468.67 177.52 469.32 169.74 473.11 162.09 C 477.58 152.81 486.67 145.12 494.03 138.05 C 499.45 133.09 505.60 126.41 513.03 124.84 Z" fill="#ffffff" />
<path d="M 545.62 145.87 C 545.85 148.68 545.80 151.41 545.34 154.19 C 545.00 151.33 545.04 148.69 545.62 145.87 Z" fill="#ffffff" />
<path d="M 503.93 230.30 C 490.39 234.05 477.87 240.03 465.08 245.72 C 473.11 244.58 480.82 242.68 488.98 242.30 C 497.23 241.79 505.05 243.10 513.08 244.82 C 506.32 246.62 499.97 246.31 493.00 247.13 C 483.44 248.16 474.11 248.51 465.08 251.74 C 470.76 251.25 476.26 250.28 482.00 250.43 C 491.42 250.64 500.68 251.54 510.00 252.80 C 517.06 253.76 524.06 254.11 530.98 255.49 C 519.33 256.14 507.63 255.97 495.96 256.18 C 484.06 256.43 472.62 259.56 461.06 262.08 C 449.31 264.63 438.13 267.52 426.23 269.15 C 404.33 272.13 382.75 271.22 361.00 272.68 C 364.67 270.69 368.33 269.72 372.49 269.34 C 386.11 268.01 399.33 266.14 412.20 261.23 C 421.70 257.60 431.50 252.90 439.30 246.29 C 442.31 243.78 445.17 241.35 448.86 239.88 C 458.96 235.77 470.26 234.76 481.03 233.21 C 488.69 232.33 496.25 230.88 503.93 230.30 Z" fill="#ffffff" />
<path d="M 468.73 276.97 C 468.88 281.82 468.57 286.61 467.23 291.28 C 464.62 300.65 461.16 309.87 458.06 319.08 C 456.97 322.28 456.38 325.56 456.04 328.91 C 459.82 320.31 462.35 311.08 466.66 302.74 C 466.21 305.25 465.67 307.73 465.20 310.23 C 469.06 303.55 471.78 296.46 474.25 289.18 C 476.13 291.78 477.90 294.55 480.04 296.94 C 481.33 298.55 483.90 298.82 485.78 299.44 C 485.07 301.58 484.37 303.72 483.71 305.88 C 486.08 304.63 488.42 303.33 490.78 302.07 C 486.69 305.61 483.27 309.68 479.62 313.63 C 476.78 316.64 472.65 315.20 470.80 319.31 C 479.69 318.10 486.75 309.33 494.88 305.94 C 498.77 304.39 502.69 304.83 506.58 306.13 C 503.16 308.84 499.25 309.57 495.41 311.42 C 490.06 313.90 485.35 317.21 480.51 320.53 C 476.60 323.20 472.34 324.89 468.12 326.96 C 473.85 325.67 478.95 323.10 483.72 319.72 C 490.40 314.99 497.15 310.90 505.20 308.96 C 501.04 312.23 496.06 313.74 491.76 316.76 C 486.29 320.52 480.78 324.85 474.85 327.85 C 471.35 329.65 467.52 329.69 463.94 331.01 C 461.50 333.58 459.90 337.04 457.99 340.01 C 452.26 349.34 446.78 358.81 445.74 369.96 C 444.93 376.05 445.79 381.93 446.64 387.95 C 443.06 379.83 442.96 371.12 444.32 362.48 C 445.23 356.43 447.60 350.84 448.68 344.83 C 449.67 339.46 451.62 334.42 452.89 329.12 C 449.50 334.75 446.78 340.75 443.39 346.39 C 437.06 357.01 428.96 368.01 417.19 372.92 C 421.03 370.07 424.76 367.57 427.79 363.79 C 431.40 359.30 434.54 354.39 436.96 349.15 C 433.10 353.01 429.93 357.21 425.60 360.61 C 421.86 363.73 417.63 365.99 413.16 367.86 C 418.07 364.23 423.34 361.02 427.32 356.32 C 429.74 353.51 431.37 350.39 433.38 347.32 C 435.30 344.37 437.73 342.03 440.17 339.52 C 438.35 340.81 436.51 342.06 434.62 343.24 C 435.21 337.76 437.56 333.23 441.03 329.04 C 445.20 324.11 449.11 318.74 454.06 314.78 C 452.85 318.93 451.22 322.90 450.17 327.10 C 454.46 322.66 455.64 317.35 457.62 311.70 C 459.89 304.40 462.91 297.40 465.09 290.08 C 466.40 285.73 467.33 281.30 468.73 276.97 Z" fill="#ffffff" />
<path d="M 543.47 281.00 C 543.85 285.90 544.11 290.54 545.70 295.26 C 547.01 299.47 549.01 303.40 550.48 307.54 C 551.79 311.13 551.24 314.82 552.65 318.30 C 554.80 323.60 558.06 328.13 560.96 332.92 C 558.48 330.74 556.21 328.38 554.33 325.66 C 549.47 318.78 544.61 310.85 542.48 302.64 C 541.07 295.73 542.82 287.98 543.47 281.00 Z" fill="#ffffff" />
<path d="M 507.62 286.93 C 508.91 291.71 510.42 296.26 513.16 300.43 C 511.33 301.23 509.15 302.77 507.12 302.64 C 504.23 302.08 501.46 300.50 498.83 299.22 C 501.20 299.07 503.57 298.95 505.95 298.84 C 506.96 294.93 507.40 290.96 507.62 286.93 Z" fill="#ffffff" />
<path d="M 537.46 287.71 L 538.33 287.32 C 538.98 295.69 540.17 303.71 543.51 311.48 C 546.21 317.61 550.43 322.08 554.24 327.78 C 557.45 332.51 561.66 336.48 566.54 339.46 C 573.80 343.81 582.95 345.44 590.98 347.85 C 583.41 347.49 575.86 345.91 568.76 343.24 C 561.39 340.46 555.07 334.80 550.67 328.34 C 546.59 322.21 542.54 316.74 540.52 309.52 C 538.65 302.48 537.22 295.02 537.46 287.71 Z" fill="#ffffff" />
<path d="M 535.70 297.19 C 536.05 302.82 536.66 308.42 537.22 314.04 C 537.67 313.16 538.12 312.28 538.56 311.39 C 539.83 314.72 540.95 317.91 543.35 320.64 C 550.36 328.55 553.58 338.25 561.80 345.21 C 567.73 350.22 574.76 354.76 582.32 356.80 C 589.05 358.63 595.76 357.85 602.35 355.85 C 595.88 359.56 587.96 359.40 580.82 358.19 C 569.35 355.67 558.36 348.16 549.02 341.30 C 551.53 345.05 554.14 348.70 556.34 352.65 C 558.77 356.89 560.80 361.45 563.50 365.51 C 565.61 368.67 568.18 371.22 570.71 374.02 C 564.30 370.62 559.63 365.23 555.88 359.11 C 551.81 352.68 549.43 346.30 544.07 340.82 C 545.95 344.90 548.30 348.64 550.41 352.59 C 553.52 358.29 556.54 364.25 560.94 369.06 C 563.67 372.11 566.84 374.38 569.93 377.02 C 566.05 375.47 562.42 373.54 559.40 370.61 C 553.38 365.16 550.01 358.39 545.32 351.96 C 546.93 358.74 549.19 365.18 549.78 372.19 C 550.89 383.39 549.91 395.57 545.27 405.94 C 547.06 392.93 548.52 380.66 545.39 367.63 C 542.96 358.70 539.51 350.02 535.10 341.88 C 532.34 336.79 530.07 331.57 528.16 326.10 C 533.30 328.34 538.34 330.47 543.99 330.98 C 538.83 328.17 533.58 325.63 528.73 322.28 C 523.79 318.85 517.90 316.13 513.75 311.83 C 519.76 314.04 524.83 318.00 530.95 320.03 C 537.45 322.25 541.65 327.14 547.67 330.18 C 544.75 327.45 541.60 325.01 538.34 322.70 C 533.49 319.20 527.71 317.71 522.25 314.74 C 517.83 312.34 513.24 310.31 508.88 307.80 C 509.44 306.71 509.97 305.64 510.64 304.62 C 515.27 302.63 520.06 305.55 523.64 308.34 C 529.19 312.28 532.20 317.34 539.09 319.01 C 535.34 315.73 531.36 313.53 530.76 308.04 C 532.04 304.29 534.21 300.87 535.70 297.19 Z" fill="#ffffff" />
<path d="M 554.82 306.17 C 558.64 309.38 561.89 313.10 565.94 316.08 C 569.29 318.65 572.98 320.30 576.76 322.11 C 568.43 319.80 558.41 314.47 554.82 306.17 Z" fill="#292b29" />
<path d="M 419.15 316.93 C 412.91 324.33 403.50 329.71 394.07 331.79 C 402.00 326.02 410.02 320.65 419.15 316.93 Z" fill="#292b29" />
<path d="M 430.92 317.17 C 426.86 323.88 421.87 330.82 415.54 335.54 C 409.98 339.80 403.73 342.38 397.46 345.48 C 394.35 347.02 391.16 348.30 387.76 349.05 C 391.38 345.88 395.53 344.11 399.55 341.56 C 405.86 337.61 412.86 334.18 418.88 329.87 C 423.78 326.39 426.62 321.64 430.92 317.17 Z" fill="#292b29" />
<path d="M 498.83 318.14 C 497.74 325.22 494.81 331.72 494.10 338.89 C 497.22 331.08 498.45 323.58 505.41 318.04 C 505.84 324.72 505.22 331.41 505.68 338.08 C 507.65 332.88 506.95 326.42 507.34 320.89 C 508.83 321.03 510.31 321.13 511.81 321.18 C 513.17 324.09 514.42 327.04 515.70 329.98 C 515.32 326.59 514.80 323.22 514.24 319.85 C 516.19 321.96 518.08 324.12 520.03 326.21 C 519.53 324.11 518.99 322.02 518.51 319.91 C 522.35 325.60 523.53 331.60 525.95 338.04 C 528.59 345.19 529.89 352.59 531.70 359.95 C 531.34 352.82 530.20 345.77 527.97 338.98 C 526.78 335.41 525.66 331.83 525.04 328.11 C 529.30 337.08 533.59 345.57 536.08 354.91 C 539.98 368.42 540.87 382.58 537.44 396.29 C 536.08 402.61 533.11 408.05 531.14 414.16 C 528.63 421.33 526.86 428.44 523.10 434.92 C 524.27 428.36 526.50 422.07 527.56 415.47 C 530.57 400.26 535.07 384.32 530.39 368.96 C 530.32 375.24 530.69 381.33 529.37 387.54 C 528.01 395.19 524.76 402.13 523.72 409.82 C 522.53 418.61 521.46 427.42 520.44 436.24 C 519.35 428.46 520.27 420.15 521.47 412.41 C 522.37 406.42 524.88 400.87 525.88 394.93 C 526.97 387.19 526.48 379.30 523.45 372.04 C 524.12 378.06 524.90 383.94 524.44 390.02 C 523.80 401.82 518.50 412.09 518.03 423.96 C 517.32 430.55 517.83 435.66 519.72 441.96 C 516.53 436.54 517.05 431.08 516.75 425.00 C 516.47 415.56 518.77 406.45 518.63 397.01 C 516.79 404.13 516.01 411.72 515.18 419.04 C 514.54 424.47 515.41 429.64 515.70 435.04 C 509.09 422.03 515.03 408.13 512.87 394.93 C 511.72 409.00 509.26 421.70 511.99 435.95 C 512.99 441.39 515.29 446.19 517.51 451.19 C 513.16 447.29 509.50 443.01 507.85 437.28 C 505.59 429.41 506.10 420.23 505.53 412.05 C 505.13 404.86 503.67 397.86 501.23 391.08 C 501.82 396.78 503.17 402.35 503.72 408.05 C 504.63 418.08 504.10 427.95 503.47 437.96 C 502.16 430.36 500.56 422.79 499.64 415.13 C 498.54 406.07 494.56 398.83 492.27 389.71 C 489.26 379.08 487.81 368.22 486.37 357.29 C 485.96 369.08 488.18 380.49 491.19 391.81 C 493.19 399.43 496.75 406.08 497.97 413.93 C 489.85 399.22 485.02 382.50 482.32 365.98 C 482.24 369.79 482.19 373.59 481.81 377.38 C 479.96 373.01 479.87 368.54 479.28 363.92 C 478.83 372.59 480.70 381.52 483.22 389.79 C 486.49 399.41 491.65 408.55 496.56 417.42 C 498.63 421.36 499.95 425.49 499.13 429.98 C 498.60 433.05 497.08 435.43 495.52 438.03 C 496.78 433.94 498.22 430.35 497.47 425.95 C 496.40 418.75 491.05 412.76 487.33 406.68 C 480.93 396.73 477.58 385.96 474.37 374.68 C 472.89 368.83 473.68 362.07 473.59 356.00 C 472.86 362.03 472.28 367.92 472.49 374.02 C 472.86 382.02 474.94 389.21 476.78 396.89 C 472.10 387.44 470.33 376.46 470.75 365.98 C 471.02 357.21 473.58 349.07 477.07 341.10 C 478.99 336.95 481.40 333.12 482.95 328.80 C 476.59 336.52 472.98 347.03 470.63 356.63 C 467.50 367.95 468.60 380.46 472.52 391.44 C 474.88 398.21 479.41 402.68 482.92 408.80 C 477.50 403.16 471.53 396.86 468.31 389.68 C 466.19 385.24 465.76 380.45 464.13 375.65 C 463.78 377.43 463.47 379.21 463.15 380.99 C 460.90 369.54 464.93 360.34 465.73 349.07 C 462.22 358.58 459.88 368.86 459.98 379.04 C 459.99 384.55 461.46 389.62 462.75 394.92 C 460.44 390.50 458.83 385.85 458.43 380.85 C 457.33 368.48 459.62 355.65 463.74 343.98 C 465.20 339.93 467.15 335.32 470.34 332.33 C 472.16 330.57 474.84 330.26 477.20 329.65 C 475.08 334.89 471.87 339.49 470.14 344.91 C 473.56 340.02 476.49 334.79 479.92 329.91 C 481.41 327.76 483.43 326.38 485.54 324.91 C 484.29 334.33 481.87 343.40 481.22 352.93 C 484.42 345.08 484.96 336.77 487.93 328.90 C 488.94 326.09 490.83 323.96 492.91 321.88 C 491.98 324.92 490.89 327.90 489.99 330.95 C 493.72 327.15 496.06 322.60 498.83 318.14 Z" fill="#ffffff" />
<path d="M 468.04 331.61 C 466.21 336.75 463.78 341.66 461.86 346.77 C 457.61 357.36 452.89 369.47 453.49 381.02 C 453.61 385.98 455.19 390.36 456.60 395.03 C 454.85 392.33 453.23 389.75 452.47 386.57 C 450.62 378.78 451.98 371.67 451.76 363.87 C 450.26 368.52 450.00 373.24 449.42 378.05 C 447.95 364.69 452.85 351.90 459.61 340.63 C 461.83 337.28 463.25 331.67 468.04 331.61 Z" fill="#ffffff" />
<path d="M 429.02 334.00 C 424.72 338.75 418.94 342.29 413.33 345.30 C 405.97 349.00 398.15 352.08 390.08 353.83 C 397.94 350.18 406.86 347.63 414.49 343.54 C 419.68 340.80 423.97 336.97 429.02 334.00 Z" fill="#292b29" />
<path d="M 431.17 339.82 C 428.67 345.79 423.73 350.81 418.55 354.55 C 407.29 362.13 394.05 363.20 380.88 363.63 C 386.94 367.26 393.35 367.55 400.13 368.64 C 390.80 369.99 382.25 366.68 373.00 367.28 C 369.86 367.36 366.99 368.68 365.71 371.68 C 364.41 375.62 364.23 379.85 362.93 383.81 C 361.13 377.93 362.32 371.10 366.58 366.58 C 369.68 363.21 375.26 363.24 379.49 362.38 C 392.53 359.76 404.40 360.36 416.25 353.26 C 422.46 349.83 425.85 344.19 431.17 339.82 Z" fill="#ffffff" />
<path d="M 536.10 347.88 C 538.96 353.51 540.16 360.18 541.55 366.32 C 543.73 376.10 543.45 387.00 539.17 396.19 C 539.53 391.76 540.59 387.47 540.84 383.03 C 541.23 376.21 540.74 369.37 539.36 362.67 C 538.44 357.68 536.86 352.89 536.10 347.88 Z" fill="#ffffff" />
<path d="M 601.31 368.10 C 602.94 371.86 602.70 377.34 601.42 381.23 C 600.78 376.87 600.65 372.46 601.31 368.10 Z" fill="#ffffff" />
<path d="M 374.03 369.15 C 378.20 369.03 382.86 369.41 386.67 371.22 C 388.57 373.03 389.55 375.82 391.14 377.92 C 394.39 382.66 400.91 383.99 405.96 386.02 C 402.26 385.74 398.69 385.33 395.30 383.71 C 391.05 381.67 387.29 378.76 382.99 376.79 C 385.71 381.02 386.67 383.64 386.58 388.79 C 392.06 389.94 397.60 390.32 403.02 391.66 C 397.33 391.91 391.68 391.30 385.98 391.35 C 389.31 394.23 392.67 396.96 395.27 400.57 C 390.52 398.86 385.13 395.69 379.99 396.67 C 375.05 397.47 371.12 400.29 368.58 404.57 C 366.18 408.48 363.85 412.39 360.97 415.98 C 357.10 420.83 354.92 426.41 351.60 431.60 C 349.01 435.65 347.05 440.02 344.43 444.05 C 344.55 434.12 348.15 425.82 351.81 416.81 C 355.85 407.10 363.24 397.56 365.54 387.32 C 366.75 382.53 366.31 377.37 367.75 372.69 C 368.76 370.00 371.42 369.29 374.03 369.15 Z" fill="#ffffff" />
<path d="M 610.33 393.47 L 611.55 393.35 C 611.32 400.60 611.66 407.87 611.31 415.12 C 609.32 407.83 610.03 400.90 610.33 393.47 Z" fill="#ffffff" />
<path d="M 686.13 418.99 C 685.67 419.92 685.17 420.82 684.63 421.70 C 683.62 421.28 682.67 420.75 681.70 420.23 C 683.16 419.76 684.63 419.34 686.13 418.99 Z" fill="#ffffff" />
<path d="M 677.29 423.15 C 681.32 422.14 685.68 424.83 688.66 427.31 C 691.01 429.02 689.79 431.56 689.68 433.98 C 685.48 431.16 681.90 427.78 677.27 425.56 C 677.25 424.75 677.26 423.95 677.29 423.15 Z" fill="#ffffff" />
<path d="M 370.02 426.21 C 378.95 425.01 388.70 430.01 396.01 434.74 C 388.27 432.47 381.08 428.56 372.75 430.89 C 367.13 433.16 362.31 437.98 358.81 442.85 C 367.61 442.53 376.15 440.79 385.01 441.43 C 379.88 442.86 374.96 443.76 370.12 446.11 C 356.02 452.74 344.48 465.05 338.27 479.28 C 336.09 484.10 334.98 489.08 333.20 494.03 C 333.20 487.97 334.19 482.08 333.72 476.01 C 333.58 472.09 332.92 467.57 335.13 464.09 C 337.76 459.98 342.21 457.12 345.15 453.14 C 349.96 446.94 349.66 439.05 355.33 433.33 C 358.97 429.78 364.98 426.85 370.02 426.21 Z" fill="#ffffff" />
<path d="M 674.08 428.43 C 677.85 430.05 681.76 432.48 684.32 435.74 C 685.83 437.35 684.37 440.03 684.06 441.94 C 680.04 438.95 676.67 435.32 672.89 432.06 C 671.54 432.84 670.20 433.64 668.85 434.42 C 670.49 432.39 672.08 430.14 674.08 428.43 Z" fill="#ffffff" />
<path d="M 667.94 437.06 C 673.40 437.79 677.62 440.18 679.06 445.79 C 674.89 443.72 669.24 442.12 667.94 437.06 Z" fill="#ffffff" />
<path d="M 667.83 444.68 C 670.74 447.07 674.05 449.90 675.70 453.35 C 676.50 455.45 675.24 456.64 674.26 458.33 C 671.47 454.98 668.03 451.81 665.94 447.97 C 666.35 446.78 667.12 445.72 667.83 444.68 Z" fill="#ffffff" />
<path d="M 399.08 458.27 C 400.17 458.40 401.11 458.84 402.12 459.25 C 396.01 459.72 389.98 459.61 383.96 461.02 C 372.73 463.17 362.24 467.96 353.11 474.83 C 362.94 472.14 372.73 469.84 382.94 469.21 C 373.40 473.85 361.93 476.59 353.07 483.06 C 346.53 487.94 341.01 495.16 339.18 503.21 C 337.20 511.65 337.91 520.31 336.48 529.00 C 336.20 521.67 336.09 514.33 335.89 507.00 C 335.70 496.62 338.17 485.98 344.72 477.72 C 350.05 471.09 357.36 465.55 365.15 462.15 C 376.03 457.46 387.45 456.98 399.08 458.27 Z" fill="#ffffff" />
<path d="M 414.89 471.21 C 409.39 475.21 403.82 478.86 399.22 483.96 C 406.19 480.06 412.47 473.35 421.02 473.60 C 427.40 473.67 431.63 478.41 437.21 479.54 C 444.86 479.41 452.54 474.20 460.11 473.19 C 465.25 472.69 470.79 473.84 475.89 474.54 C 471.72 477.61 467.21 480.10 462.86 482.87 C 460.05 484.67 458.24 486.86 456.89 489.90 C 453.22 498.12 451.51 507.63 450.39 516.52 C 449.61 522.34 449.63 528.18 448.56 533.98 C 448.26 521.23 448.78 508.69 451.14 496.13 C 451.46 494.20 451.86 492.17 451.77 490.20 C 451.14 488.15 449.32 486.40 448.05 484.70 C 450.90 482.04 454.01 479.72 456.94 477.16 C 451.59 479.58 447.01 482.65 441.31 484.35 C 433.60 486.81 426.32 485.70 418.83 488.83 C 413.21 491.04 409.49 494.91 405.00 498.71 C 408.57 492.16 413.75 486.72 416.28 479.86 C 412.86 481.46 409.82 483.71 406.47 485.43 C 400.85 488.25 393.88 488.24 388.79 491.79 C 384.35 494.81 382.53 500.37 380.16 504.97 C 379.44 498.07 379.07 491.62 384.27 486.29 C 392.21 478.40 403.44 471.53 414.89 471.21 Z" fill="#ffffff" />
<path d="M 400.00 472.29 C 389.75 478.15 380.33 484.52 372.53 493.52 C 362.50 505.69 358.28 519.86 352.45 534.07 C 354.30 524.07 356.92 513.95 360.40 504.39 C 364.33 493.67 371.97 484.58 381.82 478.83 C 387.44 475.71 393.75 473.71 400.00 472.29 Z" fill="#ffffff" />
<path d="M 524.00 476.87 C 540.65 478.28 557.32 478.32 574.00 479.04 C 584.77 479.01 595.49 480.16 605.97 482.68 C 602.66 482.52 599.42 482.19 596.15 481.65 C 589.12 480.47 582.28 480.59 575.03 480.23 C 554.90 479.95 534.57 479.66 514.52 477.86 C 517.06 475.99 521.01 476.82 524.00 476.87 Z" fill="#ffffff" />
<path d="M 546.00 494.43 C 540.34 497.41 534.34 499.29 528.30 501.33 C 525.65 502.16 523.25 503.03 520.43 502.53 C 514.79 501.48 509.16 499.80 503.89 497.52 C 511.03 498.12 517.85 500.26 524.71 499.60 C 531.90 499.00 538.94 496.28 546.00 494.43 Z" fill="#ffffff" />
<path d="M 654.89 536.14 C 650.67 553.27 646.70 570.35 644.67 587.91 C 642.06 605.83 640.76 623.91 640.27 642.01 C 639.85 659.77 642.13 677.31 642.56 694.99 C 641.45 688.05 641.30 681.01 640.36 674.04 C 637.94 652.80 638.11 631.45 639.59 610.15 C 642.16 585.44 646.17 559.51 654.89 536.14 Z" fill="#ffffff" />
<path d="M 622.54 540.27 C 622.99 555.88 622.59 571.39 623.94 586.99 C 625.77 607.74 627.28 628.47 629.91 649.11 C 631.59 663.74 634.18 678.24 635.67 692.89 C 634.65 688.97 633.88 685.00 633.23 681.01 C 629.18 657.54 624.83 634.45 622.63 610.70 C 620.96 587.23 620.50 563.74 622.54 540.27 Z" fill="#ffffff" />
<path d="M 496.55 552.20 C 496.85 565.08 496.96 578.06 495.77 590.91 C 494.51 609.36 492.20 627.85 488.23 645.92 C 490.96 623.96 493.84 602.12 495.10 580.00 C 495.45 570.72 496.11 561.47 496.55 552.20 Z" fill="#ffffff" />
<path d="M 469.27 560.06 C 471.39 565.86 472.26 571.64 473.42 577.67 C 477.42 598.00 478.09 619.35 477.05 640.00 C 475.72 670.20 470.04 699.23 462.37 728.38 C 459.13 740.22 455.72 752.00 451.54 763.55 C 440.86 794.80 427.53 825.20 411.24 853.93 C 414.66 845.69 419.04 837.87 422.77 829.76 C 442.91 786.69 457.67 741.01 466.25 694.24 C 472.86 655.83 474.52 616.60 471.16 577.78 C 470.59 571.82 469.61 566.02 469.27 560.06 Z" fill="#ffffff" />
<path d="M 366.23 561.98 C 366.98 565.85 367.56 569.74 368.19 573.62 C 372.07 599.44 375.96 626.39 374.51 652.58 C 373.44 665.22 372.24 677.52 368.78 689.77 C 366.84 696.49 365.16 703.64 362.20 709.97 C 362.72 704.55 364.11 699.35 364.92 693.98 C 367.19 678.40 368.86 662.76 369.12 647.00 C 369.66 625.40 369.70 603.89 367.75 582.35 C 367.19 575.55 366.31 568.82 366.23 561.98 Z" fill="#ffffff" />
<path d="M 386.67 681.94 C 386.75 685.29 386.69 688.62 386.49 691.96 C 384.88 719.95 379.30 747.96 369.12 774.12 C 362.15 792.47 351.88 809.28 339.30 824.31 C 335.12 829.38 330.97 834.39 326.01 838.73 C 328.35 835.21 331.18 832.08 333.57 828.60 C 336.84 823.60 339.26 817.92 341.04 812.23 C 334.42 820.78 327.81 830.09 320.02 838.02 C 314.99 843.09 309.83 847.85 304.02 852.02 C 292.02 861.06 276.06 866.11 261.93 870.92 C 247.69 875.27 232.97 879.47 218.11 880.89 C 223.56 879.20 228.97 877.49 234.22 875.25 C 257.27 865.98 279.50 852.76 297.26 835.26 C 309.19 823.91 319.33 811.37 329.36 798.36 C 338.10 786.88 346.03 774.78 353.38 762.37 C 363.91 743.93 372.62 724.50 379.35 704.36 C 382.14 696.99 383.89 689.30 386.67 681.94 Z" fill="#ffffff" />
<path d="M 687.85 796.85 C 692.16 802.47 695.54 809.00 698.92 815.22 C 694.39 810.08 690.29 803.24 687.85 796.85 Z" fill="#292b29" />
<path d="M 675.10 816.97 C 678.27 821.16 680.80 825.74 684.24 829.75 C 691.37 838.43 699.88 844.55 708.83 851.17 C 714.10 855.03 719.90 857.81 725.02 861.88 C 717.50 858.95 710.50 854.59 703.69 850.31 C 691.69 842.37 680.11 830.68 675.10 816.97 Z" fill="#ffffff" />
<path d="M 364.90 819.15 C 359.58 829.74 349.93 838.54 340.48 845.47 C 326.42 855.66 309.29 862.56 292.85 867.89 C 289.01 869.21 285.10 870.26 281.08 870.87 C 285.23 868.96 289.51 867.49 293.73 865.73 C 304.94 861.09 315.80 855.67 325.88 848.88 C 331.53 845.26 336.14 840.98 342.09 837.95 C 338.29 842.68 333.11 845.62 329.05 850.07 C 333.73 847.93 337.71 844.87 341.75 841.75 C 346.66 837.93 351.58 834.38 355.91 829.90 C 359.20 826.51 361.75 822.70 364.90 819.15 Z" fill="#ffffff" />
<metadata>
<rdf:RDF xmlns:rdf="http://www.w3.org/1999/02/22-rdf-syntax-ns#"
         xmlns:dcterms="http://purl.org/dc/terms/"
         xmlns:cc="http://creativecommons.org/ns#">
  <cc:Work rdf:about="">
    <dcterms:creator>Ben Emson</dcterms:creator>
    <dcterms:source>https://websvg.com</dcterms:source>
    <cc:license rdf:resource="http://creativecommons.org/licenses/by/4.0/"/>
  </cc:Work>
</rdf:RDF>
</metadata>
</svg>